<svg xmlns="http://www.w3.org/2000/svg" viewBox="0 0 64 64">
  <rect width="64" height="64" rx="14" fill="#0d8145"/>
  <line x1="4" y1="32" x2="60" y2="32" stroke="#ffffff" stroke-opacity="0.14" stroke-width="2"/>
  <circle cx="32" cy="32" r="21" fill="none" stroke="#ffffff" stroke-opacity="0.14" stroke-width="2"/>
  <path d="M19 20 C12.5 20 10.5 25.5 13.5 29.5 C15.5 32.2 18.8 33.4 21.8 33.7" fill="none" stroke="#f6c945" stroke-width="3.4" stroke-linecap="round"/>
  <path d="M45 20 C51.5 20 53.5 25.5 50.5 29.5 C48.5 32.2 45.2 33.4 42.2 33.7" fill="none" stroke="#f6c945" stroke-width="3.4" stroke-linecap="round"/>
  <path d="M20 14 h24 v8.5 c0 8.3 -5.4 14 -12 14 s-12 -5.7 -12 -14 z" fill="#ffd75e"/>
  <path d="M20 14 h24 v4 h-24 z" fill="#f6c945"/>
  <rect x="29" y="36" width="6" height="6" fill="#f6c945"/>
  <path d="M26.5 42 h11 l2.5 5 h-16 z" fill="#ffd75e"/>
  <rect x="21.5" y="47" width="21" height="4.5" rx="1.6" fill="#f6c945"/>
</svg>
